<?xml version="1.0" encoding="UTF-8"?>
<svg width="1395px" height="1342px" viewBox="0 0 1395 1342" version="1.1" xmlns="http://www.w3.org/2000/svg" xmlns:xlink="http://www.w3.org/1999/xlink">
    <title>Logo</title>
    <g id="Page-1" stroke="none" stroke-width="1" fill="none" fill-rule="evenodd">
        <g id="Artboard" transform="translate(23, -29)">
            <g id="Logo" transform="translate(-23, 29)">
                <circle id="bg" fill="#58C954" cx="723" cy="671" r="671"></circle>
                <path d="M434.788101,281 C442.874423,281 452.715381,290.31941 464.310977,308.95823 C442.827738,318.099618 427.742935,322.935084 419.056568,323.464627 C406.027017,324.258942 396.805402,315.223709 393.962574,313.246851 C392.067355,311.928946 392.592983,307.163221 395.539458,298.949674 C392.925003,305.283521 390.27395,309.001476 387.586302,310.103539 C384.898653,311.205602 379.840004,310.823832 372.410356,308.95823 L389.292332,315.180083 C402.4835,323.674804 413.603961,327.127521 422.653717,325.538233 C436.22835,323.1543 491.538714,300.266557 498.70991,298.949674 C503.490708,298.071752 492.024397,304.384695 464.310977,317.888501 L485.791163,339.376562 C535.772701,341.062256 563.188318,343.514042 568.038013,346.731921 C575.312555,351.55874 509.634382,355.446214 534.226334,364.465167 C550.620968,370.477802 585.673054,373.288454 639.38259,372.897123 L711.63216,425.054549 L753.755933,444.901367 L941.014471,446.995859 L1061.18633,450.927178 L941.014471,455.911836 L753.755933,455.911836 C742.000825,467.903577 731.919321,473.899447 723.511421,473.899447 C710.899572,473.899447 599.52781,408.979295 599.52781,408.979295 C599.52781,408.979295 612.812736,424.623476 639.38259,455.911836 L702.440612,538.57255 C706.404986,525.289121 710.9804,520.96377 716.166853,525.596498 C723.946532,532.54559 714.767927,564.081446 736.123271,568.692638 C757.478614,573.30383 869.239762,542.481491 930.074898,584.957461 C990.910034,627.433431 981.796473,633.854285 1003.53069,645.675792 C1021.35275,655.369428 1048.71428,656.289427 1057.987,656.306553 L1058.63281,656.306309 C1060.26674,656.301971 1061.18633,656.270567 1061.18633,656.270567 C1061.18633,656.270567 1127.07789,626.801611 1148.36147,626.801611 C1162.55052,626.801611 1201.46421,633.093005 1265.10253,645.675792 L1395,656.270567 C1335.33376,702.991875 1303.98844,726.35253 1300.96404,726.35253 C1297.93963,726.35253 1290.85654,720.268753 1279.71477,708.101201 C1185.40594,731.242767 1134.52698,742.81355 1127.07789,742.81355 C1121.82628,742.81355 1108.79024,735.603887 1095.585,727.746246 L1093.89889,726.740128 L1092.21447,725.730004 C1078.47478,717.472557 1065.25562,709.11779 1061.18633,708.101201 C1055.64988,706.718086 1055.64988,712.801863 1061.18633,726.35253 L1013.91514,684.317086 C1029.5035,714.760492 1021.67207,744.45671 990.420851,773.40574 C943.544025,816.829285 905.335557,808.961741 892.483061,825.692535 C879.630564,842.423328 917.614545,942.670749 917.614545,942.670749 C917.614545,942.670749 878.583214,946.835054 800.520554,955.163664 L790.677757,1019.04086 L698.430908,1083.71266 L651.574723,1143.01844 L629.541171,1136.51448 L629.541171,1161 L546.9803,1161 L599.52781,1120.23003 L618.075881,1120.23003 L618.075881,1096.74022 L733.484881,996.620323 C740.045958,975.164105 740.925421,963.969368 736.123271,963.036113 C727.64016,961.387495 724.293705,967.395647 721.299432,974.077349 L720.941503,974.88194 C718.086699,981.337377 715.380091,988.156129 708.588683,989.15989 C702.588248,990.046747 695.961837,991.101767 689.412521,992.070267 L687.902829,992.292115 C669.810629,994.933079 652.724389,996.760311 651.574723,992.365277 C644.567607,965.577922 719.472591,922.396905 725.520696,920.333595 C739.142774,915.686427 766.985023,921.706031 766.401636,914.844953 C765.680502,906.363882 765.680502,876.646409 766.401636,825.692535 C706.625924,860.658307 669.537338,881.665401 655.135875,888.713818 C630.253525,900.891829 585.715273,913.283711 575.611663,930.315174 C557.371321,961.062574 496.198125,1025.9394 503.734247,1037.45868 C508.860586,1045.29451 572.34122,1049.25807 606.835191,1037.03262 C611.065985,1035.53313 618.726302,1043.35911 622.120959,1041.89098 C626.382289,1040.04802 625.246123,1036.43524 623.816321,1032.89896 L623.640122,1032.46645 C622.696273,1030.16313 621.716036,1027.92457 622.120959,1026.26502 C622.469799,1024.83532 680.606682,1015.47781 680.606682,1021.33922 C680.606682,1025.24684 659.189121,1043.87253 616.354001,1077.21631 L484.650513,1078.78189 L445.254816,1055.42941 L491.412286,955.163664 L491.412286,898.393742 L434.788101,884.910028 L419.056568,898.393742 C416.687011,912.060575 398.873697,912.060575 365.616626,898.393742 C332.359555,884.726909 306.715783,881.500268 288.685309,888.713818 L319.47346,922.138618 L344.908856,922.138618 L344.908856,942.670749 L375.895453,930.315174 L403.313393,989.15989 L344.908856,974.219405 L319.47346,974.219405 C319.47346,974.219405 262.976792,913.017858 234.741096,888.713818 C206.505399,864.409778 222.671507,842.423328 234.741096,835.046279 C246.810685,827.669231 277.645607,842.423328 299.787867,842.423328 C314.549373,842.423328 336.492293,839.964312 365.616626,835.046279 C345.26171,820.175634 334.315142,803.212673 332.776922,784.157396 C331.238702,765.102119 335.28268,745.833831 344.908856,726.35253 C316.193302,700.741694 297.45212,683.128009 288.685309,673.511475 C269.995914,653.010609 250.941017,630.801801 231.520619,606.885051 C218.292318,592.160384 200.97429,590.554829 179.566533,602.068388 C147.454898,619.338726 154.292859,610.706366 119.151955,623.588867 C84.0110515,636.471369 54.9997614,660.253388 49.301429,649.823006 C43.6030966,639.392625 69.8952859,630.172488 61.2691525,626.801611 C52.643019,623.430735 27.5840426,650.171258 18.6358226,632.753771 C9.68760255,615.336285 -14.2453935,584.115725 11.7733147,575.356016 C37.792023,566.596307 81.8860867,533.811067 119.151955,495.272855 C143.995867,469.580713 184.976477,444.119104 242.093783,418.888028 C232.156933,435.49538 228.632545,446.175097 231.520619,450.927178 C233.988915,454.98855 238.368392,453.243029 243.253339,451.660961 L243.853926,451.468461 C247.370975,450.355048 251.116643,449.449359 254.578645,450.927178 C263.08528,454.55839 249.071074,468.602175 288.685309,468.602175 C315.0948,468.602175 340.738572,464.372062 365.616626,455.911836 L365.616626,473.899447 L419.056568,473.899447 C419.056568,473.899447 413.808843,485.361951 403.313393,508.286959 C426.109597,491.280719 444.075735,479.818215 457.211805,473.899447 C476.91591,465.021295 511.312416,469.055883 503.734247,463.039959 C487.514364,450.163816 478.698678,445.244002 469.905759,433.901053 C459.119197,419.986285 451.456472,404.999547 446.917584,388.94084 C435.05964,397.058485 426.971684,400.432684 422.653717,399.063436 C416.176765,397.009563 409.639582,378.115428 407.933637,376.344921 C406.595335,374.955971 404.300684,376.025557 401.938662,377.120493 L401.392788,377.372513 C399.207748,378.373534 397.02357,379.236674 395.539458,378.048166 C393.395741,376.331433 390.744689,365.892684 387.586302,346.731921 L379.794904,346.731921 C379.794904,346.731921 379.865427,346.701528 380.006473,346.64074 L380.125481,346.58945 C382.108942,345.734625 393.017976,341.033087 412.852585,332.484835 L375.895453,346.731921 C365.872831,324.493511 364.287796,310.747899 371.140347,305.495086 C381.419174,297.615866 422.658618,281 434.788101,281 Z M826.475218,861.44234 L807.320227,916.143339 L850.356383,902.199851 L826.475218,861.44234 Z M420.701541,508.048904 L413.241744,533.437222 L397.723404,533.437222 L420.701541,543.522489 L413.241744,550.903327 C436.390084,558.737926 450.789454,561.899625 456.439856,560.388426 C460.6266,559.268682 461.310487,555.772658 462.293546,552.208568 L462.439985,551.686776 C463.436368,548.208494 464.894034,544.772597 470.343543,543.522489 C477.882032,541.793173 494.776181,541.793173 521.025991,543.522489 L543.420104,543.522489 C552.429167,543.806841 558.054825,544.671499 560.297078,546.116463 C563.660457,548.283909 562.778795,550.283226 572.618689,562.338796 C573.799476,563.785465 574.814139,565.004414 575.689219,566.031258 L576.11525,566.528837 C579.985267,571.026567 580.9118,571.469966 581.592155,571.478612 L581.664231,571.47804 C581.735611,571.476134 581.80527,571.470721 581.876527,571.466253 L581.94844,571.462265 C581.984785,571.460594 582.021806,571.459529 582.059918,571.459629 L582.137718,571.461544 C582.336467,571.471037 582.569391,571.518898 582.888327,571.674689 C592.880522,576.555613 597.87662,578.996074 597.87662,578.996074 C597.87662,578.996074 602.271604,569.470959 597.87662,560.388426 C594.94663,554.333404 587.598076,545.34967 575.830958,533.437222 L543.420104,533.437222 C533.270289,527.443058 521.089852,523.211672 506.878792,520.743063 C485.562203,517.04015 483.06815,517.604924 470.343543,520.743063 C461.860472,522.835156 457.22591,527.066542 456.439856,533.437222 L435.174528,533.437222 L420.701541,508.048904 Z" id="Combined-Shape" fill="#FFFFFF" transform="translate(697.5, 721) scale(-1, 1) translate(-697.5, -721)"></path>
            </g>
        </g>
    </g>
</svg>